<svg width="287" height="50" viewBox="0 0 287 50" fill="none" xmlns="http://www.w3.org/2000/svg">
<rect x="0.5" y="0.5" width="286" height="49" rx="24.5" fill="#1F1F1F"/>
<rect x="0.5" y="0.5" width="286" height="49" rx="24.5" stroke="#747775"/>
<path d="M51 22H21V17C21 14.2857 23.2018 12 25.8165 12H46.1835C48.7982 12 51 14.2857 51 17V22Z" fill="#34A853"/>
<path d="M51 26.0537H21V21.0537C21 18.3394 23.2018 16.0537 25.8165 16.0537H46.1835C48.7982 16.0537 51 18.3394 51 21.0537V26.0537Z" fill="#FBBC04"/>
<path d="M51 30.2468H21V25.2468C21 22.5325 23.2018 20.2468 25.8165 20.2468H46.1835C48.7982 20.2468 51 22.5325 51 25.2468V30.2468Z" fill="#EA4335"/>
<path d="M21 23.2752L40.0411 27.6789C42.2329 28.2294 44.6986 27.6789 46.4795 26.3028L51 23V33.3211C51 35.9358 48.8082 38 46.2055 38H25.7945C23.1918 38 21 35.9358 21 33.3211V23.2752Z" fill="#4285F4"/>
<path d="M68.36 32L63.28 17.68H65.68L68.92 27.2L69.42 28.82H69.54L70.08 27.2L73.46 17.68H75.86L70.64 32H68.36ZM77.1739 32V21.8H79.3339V32H77.1739ZM78.2539 20.3C77.8539 20.3 77.5072 20.16 77.2139 19.88C76.9339 19.5867 76.7939 19.24 76.7939 18.84C76.7939 18.4267 76.9339 18.0867 77.2139 17.82C77.5072 17.54 77.8539 17.4 78.2539 17.4C78.6672 17.4 79.0139 17.54 79.2939 17.82C79.5739 18.0867 79.7139 18.4267 79.7139 18.84C79.7139 19.24 79.5739 19.5867 79.2939 19.88C79.0139 20.16 78.6672 20.3 78.2539 20.3ZM86.5763 32.32C85.5763 32.32 84.6829 32.0867 83.8963 31.62C83.1096 31.1533 82.4896 30.5133 82.0363 29.7C81.5963 28.8867 81.3763 27.96 81.3763 26.92C81.3763 25.9467 81.5896 25.0467 82.0163 24.22C82.4429 23.3933 83.0363 22.7333 83.7963 22.24C84.5696 21.7333 85.4563 21.48 86.4563 21.48C87.5096 21.48 88.4029 21.7067 89.1363 22.16C89.8829 22.6133 90.4496 23.2333 90.8363 24.02C91.2229 24.8067 91.4163 25.6933 91.4163 26.68C91.4163 26.8267 91.4096 26.96 91.3963 27.08C91.3963 27.2 91.3896 27.2933 91.3763 27.36H83.4963C83.5496 27.92 83.6896 28.4067 83.9163 28.82C84.2096 29.34 84.5963 29.7333 85.0763 30C85.5563 30.2667 86.0763 30.4 86.6363 30.4C87.3163 30.4 87.8829 30.2467 88.3363 29.94C88.8029 29.62 89.1696 29.2267 89.4363 28.76L91.2162 29.62C90.7763 30.42 90.1763 31.0733 89.4163 31.58C88.6563 32.0733 87.7096 32.32 86.5763 32.32ZM83.6163 25.74H89.2763C89.2629 25.4867 89.1963 25.22 89.0763 24.94C88.9563 24.6467 88.7829 24.38 88.5563 24.14C88.3296 23.9 88.0429 23.7067 87.6963 23.56C87.3496 23.4 86.9429 23.32 86.4763 23.32C85.8896 23.32 85.3696 23.4733 84.9163 23.78C84.4629 24.0733 84.1096 24.4867 83.8563 25.02C83.7496 25.2467 83.6696 25.4867 83.6163 25.74ZM95.3648 32L92.1048 21.8H94.4448L96.5448 29.14H96.6248L98.9248 21.8H101.145L103.445 29.14H103.525L105.625 21.8H107.925L104.645 32H102.385L100.025 24.62H99.9448L97.6048 32H95.3648ZM114.147 32V21.8H116.307V32H114.147ZM115.227 20.3C114.827 20.3 114.48 20.16 114.187 19.88C113.907 19.5867 113.767 19.24 113.767 18.84C113.767 18.4267 113.907 18.0867 114.187 17.82C114.48 17.54 114.827 17.4 115.227 17.4C115.64 17.4 115.987 17.54 116.267 17.82C116.547 18.0867 116.687 18.4267 116.687 18.84C116.687 19.24 116.547 19.5867 116.267 19.88C115.987 20.16 115.64 20.3 115.227 20.3ZM118.987 32V21.8H121.027V23.2H121.147C121.44 22.7067 121.873 22.3 122.447 21.98C123.033 21.6467 123.673 21.48 124.367 21.48C125.62 21.48 126.56 21.8533 127.187 22.6C127.813 23.3333 128.127 24.32 128.127 25.56V32H125.987V25.84C125.987 25.0133 125.78 24.4133 125.367 24.04C124.953 23.6533 124.413 23.46 123.747 23.46C123.227 23.46 122.773 23.6067 122.387 23.9C122 24.18 121.693 24.5533 121.467 25.02C121.253 25.4867 121.147 25.9867 121.147 26.52V32H118.987Z" fill="white"/>
<path d="M143.4 32.32C142.373 32.32 141.407 32.1333 140.5 31.76C139.593 31.3867 138.793 30.8667 138.1 30.2C137.42 29.52 136.88 28.7267 136.48 27.82C136.093 26.9 135.9 25.9067 135.9 24.84C135.9 23.7733 136.093 22.7867 136.48 21.88C136.88 20.96 137.42 20.1667 138.1 19.5C138.793 18.82 139.593 18.2933 140.5 17.92C141.407 17.5467 142.373 17.36 143.4 17.36C144.493 17.36 145.5 17.5533 146.42 17.94C147.353 18.3267 148.133 18.8667 148.76 19.56L147.24 21.06C146.933 20.7133 146.58 20.42 146.18 20.18C145.793 19.94 145.367 19.76 144.9 19.64C144.433 19.5067 143.933 19.44 143.4 19.44C142.693 19.44 142.02 19.5667 141.38 19.82C140.74 20.0733 140.173 20.44 139.68 20.92C139.2 21.3867 138.82 21.9533 138.54 22.62C138.26 23.2733 138.12 24.0133 138.12 24.84C138.12 25.6667 138.26 26.4133 138.54 27.08C138.833 27.7333 139.22 28.3 139.7 28.78C140.193 29.2467 140.76 29.6067 141.4 29.86C142.04 30.1133 142.713 30.24 143.42 30.24C144.073 30.24 144.68 30.1467 145.24 29.96C145.813 29.7733 146.313 29.5067 146.74 29.16C147.167 28.8133 147.513 28.3933 147.78 27.9C148.047 27.3933 148.213 26.8267 148.28 26.2H143.38V24.26H150.34C150.367 24.42 150.393 24.6067 150.42 24.82C150.447 25.02 150.46 25.2133 150.46 25.4V25.42C150.46 26.4467 150.28 27.3867 149.92 28.24C149.573 29.0933 149.087 29.8267 148.46 30.44C147.833 31.04 147.087 31.5067 146.22 31.84C145.367 32.16 144.427 32.32 143.4 32.32ZM156.9 32.32C155.847 32.32 154.92 32.08 154.12 31.6C153.32 31.12 152.693 30.4733 152.24 29.66C151.787 28.8333 151.56 27.9133 151.56 26.9C151.56 25.8867 151.787 24.9733 152.24 24.16C152.693 23.3333 153.32 22.68 154.12 22.2C154.92 21.72 155.847 21.48 156.9 21.48C157.94 21.48 158.86 21.7267 159.66 22.22C160.46 22.7 161.087 23.3467 161.54 24.16C161.993 24.9733 162.22 25.8867 162.22 26.9C162.22 27.9133 161.993 28.8333 161.54 29.66C161.087 30.4733 160.46 31.12 159.66 31.6C158.86 32.08 157.94 32.32 156.9 32.32ZM156.9 30.34C157.46 30.34 157.98 30.2067 158.46 29.94C158.94 29.66 159.327 29.2667 159.62 28.76C159.927 28.24 160.08 27.62 160.08 26.9C160.08 26.18 159.927 25.5667 159.62 25.06C159.327 24.54 158.94 24.1467 158.46 23.88C157.98 23.6 157.46 23.46 156.9 23.46C156.34 23.46 155.813 23.6 155.32 23.88C154.84 24.1467 154.447 24.54 154.14 25.06C153.847 25.5667 153.7 26.18 153.7 26.9C153.7 27.62 153.847 28.24 154.14 28.76C154.447 29.2667 154.847 29.66 155.34 29.94C155.833 30.2067 156.353 30.34 156.9 30.34ZM169.009 32.32C167.956 32.32 167.029 32.08 166.229 31.6C165.429 31.12 164.803 30.4733 164.349 29.66C163.896 28.8333 163.669 27.9133 163.669 26.9C163.669 25.8867 163.896 24.9733 164.349 24.16C164.803 23.3333 165.429 22.68 166.229 22.2C167.029 21.72 167.956 21.48 169.009 21.48C170.049 21.48 170.969 21.7267 171.769 22.22C172.569 22.7 173.196 23.3467 173.649 24.16C174.103 24.9733 174.329 25.8867 174.329 26.9C174.329 27.9133 174.103 28.8333 173.649 29.66C173.196 30.4733 172.569 31.12 171.769 31.6C170.969 32.08 170.049 32.32 169.009 32.32ZM169.009 30.34C169.569 30.34 170.089 30.2067 170.569 29.94C171.049 29.66 171.436 29.2667 171.729 28.76C172.036 28.24 172.189 27.62 172.189 26.9C172.189 26.18 172.036 25.5667 171.729 25.06C171.436 24.54 171.049 24.1467 170.569 23.88C170.089 23.6 169.569 23.46 169.009 23.46C168.449 23.46 167.923 23.6 167.429 23.88C166.949 24.1467 166.556 24.54 166.249 25.06C165.956 25.5667 165.809 26.18 165.809 26.9C165.809 27.62 165.956 28.24 166.249 28.76C166.556 29.2667 166.956 29.66 167.449 29.94C167.943 30.2067 168.463 30.34 169.009 30.34ZM180.919 36.64C180.025 36.64 179.252 36.4933 178.599 36.2C177.959 35.92 177.439 35.5533 177.039 35.1C176.639 34.66 176.352 34.2067 176.179 33.74L178.179 32.9C178.392 33.4333 178.732 33.8667 179.199 34.2C179.679 34.5467 180.252 34.72 180.919 34.72C181.865 34.72 182.605 34.44 183.139 33.88C183.672 33.32 183.939 32.5267 183.939 31.5V30.52H183.819C183.499 30.9867 183.059 31.3667 182.499 31.66C181.939 31.9533 181.292 32.1 180.559 32.1C179.692 32.1 178.892 31.88 178.159 31.44C177.439 31 176.859 30.3867 176.419 29.6C175.992 28.8 175.779 27.8667 175.779 26.8C175.779 25.72 175.992 24.7867 176.419 24C176.859 23.2 177.439 22.58 178.159 22.14C178.892 21.7 179.692 21.48 180.559 21.48C181.292 21.48 181.939 21.6267 182.499 21.92C183.059 22.2 183.499 22.5867 183.819 23.08H183.939V21.8H185.999V31.46C185.999 32.5667 185.779 33.5067 185.339 34.28C184.912 35.0533 184.319 35.64 183.559 36.04C182.799 36.44 181.919 36.64 180.919 36.64ZM180.939 30.14C181.472 30.14 181.965 30.0133 182.419 29.76C182.885 29.4933 183.252 29.1133 183.519 28.62C183.799 28.1133 183.939 27.5067 183.939 26.8C183.939 26.0533 183.799 25.4333 183.519 24.94C183.252 24.4467 182.885 24.0733 182.419 23.82C181.965 23.5667 181.472 23.44 180.939 23.44C180.405 23.44 179.905 23.5667 179.439 23.82C178.985 24.0733 178.619 24.4533 178.339 24.96C178.059 25.4533 177.919 26.0667 177.919 26.8C177.919 27.52 178.059 28.1333 178.339 28.64C178.619 29.1333 178.985 29.5067 179.439 29.76C179.905 30.0133 180.405 30.14 180.939 30.14ZM188.546 32V17.68H190.706V32H188.546ZM197.815 32.32C196.815 32.32 195.921 32.0867 195.135 31.62C194.348 31.1533 193.728 30.5133 193.275 29.7C192.835 28.8867 192.615 27.96 192.615 26.92C192.615 25.9467 192.828 25.0467 193.255 24.22C193.681 23.3933 194.275 22.7333 195.035 22.24C195.808 21.7333 196.695 21.48 197.695 21.48C198.748 21.48 199.641 21.7067 200.375 22.16C201.121 22.6133 201.688 23.2333 202.075 24.02C202.461 24.8067 202.655 25.6933 202.655 26.68C202.655 26.8267 202.648 26.96 202.635 27.08C202.635 27.2 202.628 27.2933 202.615 27.36H194.735C194.788 27.92 194.928 28.4067 195.155 28.82C195.448 29.34 195.835 29.7333 196.315 30C196.795 30.2667 197.315 30.4 197.875 30.4C198.555 30.4 199.121 30.2467 199.575 29.94C200.041 29.62 200.408 29.2267 200.675 28.76L202.455 29.62C202.015 30.42 201.415 31.0733 200.655 31.58C199.895 32.0733 198.948 32.32 197.815 32.32ZM194.855 25.74H200.515C200.501 25.4867 200.435 25.22 200.315 24.94C200.195 24.6467 200.021 24.38 199.795 24.14C199.568 23.9 199.281 23.7067 198.935 23.56C198.588 23.4 198.181 23.32 197.715 23.32C197.128 23.32 196.608 23.4733 196.155 23.78C195.701 24.0733 195.348 24.4867 195.095 25.02C194.988 25.2467 194.908 25.4867 194.855 25.74ZM211.446 32L207.606 17.68H210.046L212.326 26.98L212.566 28.22H212.686L212.986 26.98L215.866 17.68H218.066L220.826 26.98L221.126 28.2H221.246L221.486 26.98L223.766 17.68H226.186L222.406 32H220.086L217.346 22.5L217.026 21.16H216.906L216.566 22.5L213.706 32H211.446ZM230.202 32.32C229.469 32.32 228.816 32.1733 228.242 31.88C227.682 31.5867 227.236 31.1867 226.902 30.68C226.582 30.16 226.422 29.5667 226.422 28.9C226.422 28.1667 226.609 27.5467 226.982 27.04C227.369 26.5333 227.882 26.1467 228.522 25.88C229.162 25.6133 229.869 25.48 230.642 25.48C231.069 25.48 231.462 25.5133 231.822 25.58C232.196 25.6333 232.516 25.7 232.782 25.78C233.062 25.86 233.282 25.9467 233.442 26.04V25.5C233.442 24.8333 233.202 24.3 232.722 23.9C232.242 23.5 231.622 23.3 230.862 23.3C230.342 23.3 229.849 23.42 229.382 23.66C228.916 23.8867 228.542 24.2 228.262 24.6L226.782 23.46C227.076 23.0467 227.429 22.6933 227.842 22.4C228.269 22.1067 228.742 21.88 229.262 21.72C229.796 21.56 230.349 21.48 230.922 21.48C232.402 21.48 233.542 21.8467 234.342 22.58C235.142 23.3 235.542 24.3133 235.542 25.62V32H233.442V30.74H233.322C233.149 31.0067 232.909 31.26 232.602 31.5C232.309 31.74 231.956 31.9333 231.542 32.08C231.142 32.24 230.696 32.32 230.202 32.32ZM230.582 30.56C231.142 30.56 231.636 30.4267 232.062 30.16C232.502 29.8933 232.842 29.5467 233.082 29.12C233.322 28.68 233.442 28.2067 233.442 27.7C233.149 27.5267 232.789 27.3867 232.362 27.28C231.949 27.16 231.509 27.1 231.042 27.1C230.162 27.1 229.536 27.2733 229.162 27.62C228.789 27.9667 228.602 28.4 228.602 28.92C228.602 29.4 228.782 29.7933 229.142 30.1C229.502 30.4067 229.982 30.56 230.582 30.56ZM237.94 32V17.68H240.1V32H237.94ZM242.667 32V17.68H244.827V32H242.667ZM251.936 32.32C250.936 32.32 250.042 32.0867 249.256 31.62C248.469 31.1533 247.849 30.5133 247.396 29.7C246.956 28.8867 246.736 27.96 246.736 26.92C246.736 25.9467 246.949 25.0467 247.376 24.22C247.802 23.3933 248.396 22.7333 249.156 22.24C249.929 21.7333 250.816 21.48 251.816 21.48C252.869 21.48 253.762 21.7067 254.496 22.16C255.242 22.6133 255.809 23.2333 256.196 24.02C256.582 24.8067 256.776 25.6933 256.776 26.68C256.776 26.8267 256.769 26.96 256.756 27.08C256.756 27.2 256.749 27.2933 256.736 27.36H248.856C248.909 27.92 249.049 28.4067 249.276 28.82C249.569 29.34 249.956 29.7333 250.436 30C250.916 30.2667 251.436 30.4 251.996 30.4C252.676 30.4 253.242 30.2467 253.696 29.94C254.162 29.62 254.529 29.2267 254.796 28.76L256.576 29.62C256.136 30.42 255.536 31.0733 254.776 31.58C254.016 32.0733 253.069 32.32 251.936 32.32ZM248.976 25.74H254.636C254.622 25.4867 254.556 25.22 254.436 24.94C254.316 24.6467 254.142 24.38 253.916 24.14C253.689 23.9 253.402 23.7067 253.056 23.56C252.709 23.4 252.302 23.32 251.836 23.32C251.249 23.32 250.729 23.4733 250.276 23.78C249.822 24.0733 249.469 24.4867 249.216 25.02C249.109 25.2467 249.029 25.4867 248.976 25.74ZM257.787 21.8H259.567V18.92H261.727V21.8H264.227V23.68H261.727V28.58C261.727 29.0867 261.827 29.4733 262.027 29.74C262.24 30.0067 262.593 30.14 263.087 30.14C263.327 30.14 263.54 30.1067 263.727 30.04C263.913 29.96 264.1 29.8667 264.287 29.76V31.86C264.06 31.9533 263.82 32.0267 263.567 32.08C263.313 32.1333 263.013 32.16 262.667 32.16C261.72 32.16 260.967 31.8867 260.407 31.34C259.847 30.78 259.567 30.0133 259.567 29.04V23.68H257.787V21.8Z" fill="white"/>
</svg>
