<svg width="287" height="50" viewBox="0 0 287 50" fill="none" xmlns="http://www.w3.org/2000/svg">
<rect x="0.5" y="0.5" width="286" height="49" rx="24.5" fill="#1F1F1F"/>
<rect x="0.5" y="0.5" width="286" height="49" rx="24.5" stroke="#747775"/>
<path d="M51 22H21V17C21 14.2857 23.2018 12 25.8165 12H46.1835C48.7982 12 51 14.2857 51 17V22Z" fill="#34A853"/>
<path d="M51 26.0537H21V21.0537C21 18.3394 23.2018 16.0537 25.8165 16.0537H46.1835C48.7982 16.0537 51 18.3394 51 21.0537V26.0537Z" fill="#FBBC04"/>
<path d="M51 30.2468H21V25.2468C21 22.5325 23.2018 20.2468 25.8165 20.2468H46.1835C48.7982 20.2468 51 22.5325 51 25.2468V30.2468Z" fill="#EA4335"/>
<path d="M21 23.2752L40.0411 27.6789C42.2329 28.2294 44.6986 27.6789 46.4795 26.3028L51 23V33.3211C51 35.9358 48.8082 38 46.2055 38H25.7945C23.1918 38 21 35.9358 21 33.3211V23.2752Z" fill="#4285F4"/>
<path d="M64.24 18.3H81.76V19.76H64.24V18.3ZM70.44 24.64H80.98V26.04H70.44V24.64ZM69.66 31.72H81.76V33.14H69.66V31.72ZM74.96 20.78H76.46V32.48H74.96V20.78ZM70.82 15.2L72.36 15.58C70.96 20.16 68.52 24.82 64.54 27.68C64.38 27.28 64 26.64 63.76 26.3C67.36 23.76 69.7 19.32 70.82 15.2ZM66.86 23.44H68.36V33.54H66.86V23.44ZM95.6773 32.32C94.6507 32.32 93.684 32.1333 92.7773 31.76C91.8707 31.3867 91.0707 30.8667 90.3773 30.2C89.6973 29.52 89.1573 28.7267 88.7573 27.82C88.3707 26.9 88.1773 25.9067 88.1773 24.84C88.1773 23.7733 88.3707 22.7867 88.7573 21.88C89.1573 20.96 89.6973 20.1667 90.3773 19.5C91.0707 18.82 91.8707 18.2933 92.7773 17.92C93.684 17.5467 94.6507 17.36 95.6773 17.36C96.7707 17.36 97.7773 17.5533 98.6973 17.94C99.6307 18.3267 100.411 18.8667 101.037 19.56L99.5173 21.06C99.2107 20.7133 98.8573 20.42 98.4573 20.18C98.0707 19.94 97.644 19.76 97.1773 19.64C96.7107 19.5067 96.2107 19.44 95.6773 19.44C94.9707 19.44 94.2973 19.5667 93.6573 19.82C93.0173 20.0733 92.4507 20.44 91.9573 20.92C91.4773 21.3867 91.0973 21.9533 90.8173 22.62C90.5373 23.2733 90.3973 24.0133 90.3973 24.84C90.3973 25.6667 90.5373 26.4133 90.8173 27.08C91.1107 27.7333 91.4973 28.3 91.9773 28.78C92.4707 29.2467 93.0373 29.6067 93.6773 29.86C94.3173 30.1133 94.9907 30.24 95.6973 30.24C96.3507 30.24 96.9573 30.1467 97.5173 29.96C98.0907 29.7733 98.5907 29.5067 99.0173 29.16C99.444 28.8133 99.7907 28.3933 100.057 27.9C100.324 27.3933 100.491 26.8267 100.557 26.2H95.6573V24.26H102.617C102.644 24.42 102.671 24.6067 102.697 24.82C102.724 25.02 102.737 25.2133 102.737 25.4V25.42C102.737 26.4467 102.557 27.3867 102.197 28.24C101.851 29.0933 101.364 29.8267 100.737 30.44C100.111 31.04 99.364 31.5067 98.4973 31.84C97.644 32.16 96.704 32.32 95.6773 32.32ZM109.177 32.32C108.124 32.32 107.197 32.08 106.397 31.6C105.597 31.12 104.971 30.4733 104.517 29.66C104.064 28.8333 103.837 27.9133 103.837 26.9C103.837 25.8867 104.064 24.9733 104.517 24.16C104.971 23.3333 105.597 22.68 106.397 22.2C107.197 21.72 108.124 21.48 109.177 21.48C110.217 21.48 111.137 21.7267 111.937 22.22C112.737 22.7 113.364 23.3467 113.817 24.16C114.271 24.9733 114.497 25.8867 114.497 26.9C114.497 27.9133 114.271 28.8333 113.817 29.66C113.364 30.4733 112.737 31.12 111.937 31.6C111.137 32.08 110.217 32.32 109.177 32.32ZM109.177 30.34C109.737 30.34 110.257 30.2067 110.737 29.94C111.217 29.66 111.604 29.2667 111.897 28.76C112.204 28.24 112.357 27.62 112.357 26.9C112.357 26.18 112.204 25.5667 111.897 25.06C111.604 24.54 111.217 24.1467 110.737 23.88C110.257 23.6 109.737 23.46 109.177 23.46C108.617 23.46 108.091 23.6 107.597 23.88C107.117 24.1467 106.724 24.54 106.417 25.06C106.124 25.5667 105.977 26.18 105.977 26.9C105.977 27.62 106.124 28.24 106.417 28.76C106.724 29.2667 107.124 29.66 107.617 29.94C108.111 30.2067 108.631 30.34 109.177 30.34ZM121.287 32.32C120.233 32.32 119.307 32.08 118.507 31.6C117.707 31.12 117.08 30.4733 116.627 29.66C116.173 28.8333 115.947 27.9133 115.947 26.9C115.947 25.8867 116.173 24.9733 116.627 24.16C117.08 23.3333 117.707 22.68 118.507 22.2C119.307 21.72 120.233 21.48 121.287 21.48C122.327 21.48 123.247 21.7267 124.047 22.22C124.847 22.7 125.473 23.3467 125.927 24.16C126.38 24.9733 126.607 25.8867 126.607 26.9C126.607 27.9133 126.38 28.8333 125.927 29.66C125.473 30.4733 124.847 31.12 124.047 31.6C123.247 32.08 122.327 32.32 121.287 32.32ZM121.287 30.34C121.847 30.34 122.367 30.2067 122.847 29.94C123.327 29.66 123.713 29.2667 124.007 28.76C124.313 28.24 124.467 27.62 124.467 26.9C124.467 26.18 124.313 25.5667 124.007 25.06C123.713 24.54 123.327 24.1467 122.847 23.88C122.367 23.6 121.847 23.46 121.287 23.46C120.727 23.46 120.2 23.6 119.707 23.88C119.227 24.1467 118.833 24.54 118.527 25.06C118.233 25.5667 118.087 26.18 118.087 26.9C118.087 27.62 118.233 28.24 118.527 28.76C118.833 29.2667 119.233 29.66 119.727 29.94C120.22 30.2067 120.74 30.34 121.287 30.34ZM133.196 36.64C132.303 36.64 131.529 36.4933 130.876 36.2C130.236 35.92 129.716 35.5533 129.316 35.1C128.916 34.66 128.629 34.2067 128.456 33.74L130.456 32.9C130.669 33.4333 131.009 33.8667 131.476 34.2C131.956 34.5467 132.529 34.72 133.196 34.72C134.143 34.72 134.883 34.44 135.416 33.88C135.949 33.32 136.216 32.5267 136.216 31.5V30.52H136.096C135.776 30.9867 135.336 31.3667 134.776 31.66C134.216 31.9533 133.569 32.1 132.836 32.1C131.969 32.1 131.169 31.88 130.436 31.44C129.716 31 129.136 30.3867 128.696 29.6C128.269 28.8 128.056 27.8667 128.056 26.8C128.056 25.72 128.269 24.7867 128.696 24C129.136 23.2 129.716 22.58 130.436 22.14C131.169 21.7 131.969 21.48 132.836 21.48C133.569 21.48 134.216 21.6267 134.776 21.92C135.336 22.2 135.776 22.5867 136.096 23.08H136.216V21.8H138.276V31.46C138.276 32.5667 138.056 33.5067 137.616 34.28C137.189 35.0533 136.596 35.64 135.836 36.04C135.076 36.44 134.196 36.64 133.196 36.64ZM133.216 30.14C133.749 30.14 134.243 30.0133 134.696 29.76C135.163 29.4933 135.529 29.1133 135.796 28.62C136.076 28.1133 136.216 27.5067 136.216 26.8C136.216 26.0533 136.076 25.4333 135.796 24.94C135.529 24.4467 135.163 24.0733 134.696 23.82C134.243 23.5667 133.749 23.44 133.216 23.44C132.683 23.44 132.183 23.5667 131.716 23.82C131.263 24.0733 130.896 24.4533 130.616 24.96C130.336 25.4533 130.196 26.0667 130.196 26.8C130.196 27.52 130.336 28.1333 130.616 28.64C130.896 29.1333 131.263 29.5067 131.716 29.76C132.183 30.0133 132.683 30.14 133.216 30.14ZM140.823 32V17.68H142.983V32H140.823ZM150.092 32.32C149.092 32.32 148.199 32.0867 147.412 31.62C146.625 31.1533 146.005 30.5133 145.552 29.7C145.112 28.8867 144.892 27.96 144.892 26.92C144.892 25.9467 145.105 25.0467 145.532 24.22C145.959 23.3933 146.552 22.7333 147.312 22.24C148.085 21.7333 148.972 21.48 149.972 21.48C151.025 21.48 151.919 21.7067 152.652 22.16C153.399 22.6133 153.965 23.2333 154.352 24.02C154.739 24.8067 154.932 25.6933 154.932 26.68C154.932 26.8267 154.925 26.96 154.912 27.08C154.912 27.2 154.905 27.2933 154.892 27.36H147.012C147.065 27.92 147.205 28.4067 147.432 28.82C147.725 29.34 148.112 29.7333 148.592 30C149.072 30.2667 149.592 30.4 150.152 30.4C150.832 30.4 151.399 30.2467 151.852 29.94C152.319 29.62 152.685 29.2267 152.952 28.76L154.732 29.62C154.292 30.42 153.692 31.0733 152.932 31.58C152.172 32.0733 151.225 32.32 150.092 32.32ZM147.132 25.74H152.792C152.779 25.4867 152.712 25.22 152.592 24.94C152.472 24.6467 152.299 24.38 152.072 24.14C151.845 23.9 151.559 23.7067 151.212 23.56C150.865 23.4 150.459 23.32 149.992 23.32C149.405 23.32 148.885 23.4733 148.432 23.78C147.979 24.0733 147.625 24.4867 147.372 25.02C147.265 25.2467 147.185 25.4867 147.132 25.74ZM163.964 15.26L165.324 15.66C164.544 17.86 163.244 20.06 161.804 21.5C161.684 21.2 161.284 20.44 161.024 20.1C162.244 18.92 163.344 17.14 163.964 15.26ZM163.564 17.46H168.344V18.9H163.264L163.564 17.46ZM164.224 33.46L164.004 32.08L164.504 31.48L168.504 29.18C168.564 29.58 168.724 30.16 168.864 30.46C165.104 32.72 164.564 33.08 164.224 33.46ZM162.544 21.06H168.064V22.42H162.544V21.06ZM161.584 25.14H168.604V26.5H161.584V25.14ZM169.224 20.02L178.424 18.64L178.664 19.96L169.484 21.36L169.224 20.02ZM168.824 24.32L178.964 22.42L179.224 23.74L169.064 25.66L168.824 24.32ZM172.124 15.18H173.564C173.504 24.62 175.044 32.1 177.604 32.12C178.144 32.12 178.344 31.64 178.424 29.88C178.724 30.18 179.204 30.5 179.544 30.64C179.264 32.86 178.804 33.52 177.464 33.52C173.524 33.52 172.204 24.96 172.124 15.18ZM174.344 16.4L175.204 15.58C176.204 16.02 177.464 16.74 178.104 17.28L177.224 18.22C176.584 17.66 175.344 16.88 174.344 16.4ZM178.084 25.04L179.324 25.6C177.264 29.02 173.624 31.72 169.504 33.26C169.284 32.9 168.924 32.38 168.584 32.06C172.584 30.7 176.164 28.18 178.084 25.04ZM164.224 33.46C164.084 33.14 163.704 32.62 163.484 32.38C163.824 32.14 164.504 31.52 164.504 30.6V21.48H165.864V31.68C165.864 31.68 164.224 32.9 164.224 33.46ZM185.984 15.1L187.544 15.54C186.284 18.66 184.324 21.62 182.284 23.54C181.984 23.26 181.344 22.72 180.944 22.48C183.024 20.74 184.864 17.96 185.984 15.1ZM185.744 17.5H197.024V18.92H185.024L185.744 17.5ZM196.544 17.5H198.044C198.044 17.5 198.044 18 198.044 18.22C197.844 24.96 197.644 27.34 197.064 28.08C196.704 28.54 196.304 28.7 195.704 28.76C195.144 28.82 194.144 28.8 193.064 28.76C193.044 28.32 192.884 27.72 192.644 27.32C193.664 27.42 194.624 27.44 195.004 27.44C195.324 27.44 195.544 27.38 195.704 27.16C196.164 26.64 196.364 24.34 196.544 17.8V17.5ZM184.684 25.82H190.904V22.4H184.264V21.06H192.404V27.16H184.684V25.82ZM183.964 25.82H185.464V30.96C185.464 31.78 185.864 31.96 188.024 31.96C189.044 31.96 194.224 31.96 195.564 31.96C197.384 31.96 197.684 31.56 197.864 29.26C198.244 29.48 198.884 29.72 199.304 29.8C199.004 32.68 198.424 33.38 195.584 33.38C194.844 33.38 188.804 33.38 188.104 33.38C184.904 33.38 183.964 32.94 183.964 30.96V25.82Z" fill="white"/>
<path d="M207.92 18.78H224.04V28.2H222.48V20.26H209.42V28.3H207.92V18.78ZM208.72 25.58H223.38V27.04H208.72V25.58ZM215.16 15.2H216.72V33.58H215.16V15.2ZM231.9 27.66V29.32H240V27.66H231.9ZM231.9 24.96V26.6H240V24.96H231.9ZM230.42 23.88H241.54V30.4H230.42V23.88ZM227.14 17.76H244.88V19.08H227.14V17.76ZM235.18 15.2H236.68V23.26H235.18V15.2ZM234.32 18.14L235.58 18.64C233.78 21.22 230.62 23.56 227.68 24.72C227.46 24.36 227.02 23.82 226.7 23.52C229.58 22.54 232.72 20.38 234.32 18.14ZM237.5 18.16C239.12 20.34 242.32 22.4 245.28 23.34C244.94 23.62 244.5 24.18 244.28 24.58C241.3 23.46 238.1 21.16 236.28 18.64L237.5 18.16ZM227.46 31.62H244.6V32.96H227.46V31.62ZM251.18 24.1H262.84V33.66H261.34V25.3H252.62V33.66H251.18V24.1ZM247.16 21.46H264.82V22.7H247.16V21.46ZM248.62 18.78H263.66V19.98H248.62V18.78ZM252.16 26.66H261.98V27.72H252.16V26.66ZM252.16 29.14H261.98V30.18H252.16V29.14ZM252.02 31.66H261.98V32.86H252.02V31.66ZM262.5 15.36L263.46 16.46C259.74 17.2 253.6 17.5 248.66 17.52C248.62 17.18 248.48 16.66 248.34 16.34C253.22 16.3 259.32 16.02 262.5 15.36ZM254.3 16.74L255.86 17.06C254.52 21.9 252.08 26.48 247.6 29.14C247.4 28.82 246.96 28.26 246.66 27.98C250.9 25.54 253.24 21.16 254.3 16.74Z" fill="white"/>
</svg>
