<svg width="303" height="50" viewBox="0 0 303 50" fill="none" xmlns="http://www.w3.org/2000/svg">
<rect x="0.5" y="0.5" width="302" height="49" rx="24.5" fill="#1F1F1F"/>
<rect x="0.5" y="0.5" width="302" height="49" rx="24.5" stroke="#747775"/>
<path d="M51 22H21V17C21 14.2857 23.2018 12 25.8165 12H46.1835C48.7982 12 51 14.2857 51 17V22Z" fill="#34A853"/>
<path d="M51 26.0537H21V21.0537C21 18.3394 23.2018 16.0537 25.8165 16.0537H46.1835C48.7982 16.0537 51 18.3394 51 21.0537V26.0537Z" fill="#FBBC04"/>
<path d="M51 30.2468H21V25.2468C21 22.5325 23.2018 20.2468 25.8165 20.2468H46.1835C48.7982 20.2468 51 22.5325 51 25.2468V30.2468Z" fill="#EA4335"/>
<path d="M21 23.2752L40.0411 27.6789C42.2329 28.2294 44.6986 27.6789 46.4795 26.3028L51 23V33.3211C51 35.9358 48.8082 38 46.2055 38H25.7945C23.1918 38 21 35.9358 21 33.3211V23.2752Z" fill="#4285F4"/>
<path d="M64.24 18.3H81.76V19.76H64.24V18.3ZM70.44 24.64H80.98V26.04H70.44V24.64ZM69.66 31.72H81.76V33.14H69.66V31.72ZM74.96 20.78H76.46V32.48H74.96V20.78ZM70.82 15.2L72.36 15.58C70.96 20.16 68.52 24.82 64.54 27.68C64.38 27.28 64 26.64 63.76 26.3C67.36 23.76 69.7 19.32 70.82 15.2ZM66.86 23.44H68.36V33.54H66.86V23.44ZM96 15.1H102.3V16.48H97.48V28.02H96V15.1ZM111.4 32.32C110.373 32.32 109.407 32.1333 108.5 31.76C107.593 31.3867 106.793 30.8667 106.1 30.2C105.42 29.52 104.88 28.7267 104.48 27.82C104.093 26.9 103.9 25.9067 103.9 24.84C103.9 23.7733 104.093 22.7867 104.48 21.88C104.88 20.96 105.42 20.1667 106.1 19.5C106.793 18.82 107.593 18.2933 108.5 17.92C109.407 17.5467 110.373 17.36 111.4 17.36C112.493 17.36 113.5 17.5533 114.42 17.94C115.353 18.3267 116.133 18.8667 116.76 19.56L115.24 21.06C114.933 20.7133 114.58 20.42 114.18 20.18C113.793 19.94 113.367 19.76 112.9 19.64C112.433 19.5067 111.933 19.44 111.4 19.44C110.693 19.44 110.02 19.5667 109.38 19.82C108.74 20.0733 108.173 20.44 107.68 20.92C107.2 21.3867 106.82 21.9533 106.54 22.62C106.26 23.2733 106.12 24.0133 106.12 24.84C106.12 25.6667 106.26 26.4133 106.54 27.08C106.833 27.7333 107.22 28.3 107.7 28.78C108.193 29.2467 108.76 29.6067 109.4 29.86C110.04 30.1133 110.713 30.24 111.42 30.24C112.073 30.24 112.68 30.1467 113.24 29.96C113.813 29.7733 114.313 29.5067 114.74 29.16C115.167 28.8133 115.513 28.3933 115.78 27.9C116.047 27.3933 116.213 26.8267 116.28 26.2H111.38V24.26H118.34C118.367 24.42 118.393 24.6067 118.42 24.82C118.447 25.02 118.46 25.2133 118.46 25.4V25.42C118.46 26.4467 118.28 27.3867 117.92 28.24C117.573 29.0933 117.087 29.8267 116.46 30.44C115.833 31.04 115.087 31.5067 114.22 31.84C113.367 32.16 112.427 32.32 111.4 32.32ZM124.9 32.32C123.847 32.32 122.92 32.08 122.12 31.6C121.32 31.12 120.693 30.4733 120.24 29.66C119.787 28.8333 119.56 27.9133 119.56 26.9C119.56 25.8867 119.787 24.9733 120.24 24.16C120.693 23.3333 121.32 22.68 122.12 22.2C122.92 21.72 123.847 21.48 124.9 21.48C125.94 21.48 126.86 21.7267 127.66 22.22C128.46 22.7 129.087 23.3467 129.54 24.16C129.993 24.9733 130.22 25.8867 130.22 26.9C130.22 27.9133 129.993 28.8333 129.54 29.66C129.087 30.4733 128.46 31.12 127.66 31.6C126.86 32.08 125.94 32.32 124.9 32.32ZM124.9 30.34C125.46 30.34 125.98 30.2067 126.46 29.94C126.94 29.66 127.327 29.2667 127.62 28.76C127.927 28.24 128.08 27.62 128.08 26.9C128.08 26.18 127.927 25.5667 127.62 25.06C127.327 24.54 126.94 24.1467 126.46 23.88C125.98 23.6 125.46 23.46 124.9 23.46C124.34 23.46 123.813 23.6 123.32 23.88C122.84 24.1467 122.447 24.54 122.14 25.06C121.847 25.5667 121.7 26.18 121.7 26.9C121.7 27.62 121.847 28.24 122.14 28.76C122.447 29.2667 122.847 29.66 123.34 29.94C123.833 30.2067 124.353 30.34 124.9 30.34ZM137.009 32.32C135.956 32.32 135.029 32.08 134.229 31.6C133.429 31.12 132.803 30.4733 132.349 29.66C131.896 28.8333 131.669 27.9133 131.669 26.9C131.669 25.8867 131.896 24.9733 132.349 24.16C132.803 23.3333 133.429 22.68 134.229 22.2C135.029 21.72 135.956 21.48 137.009 21.48C138.049 21.48 138.969 21.7267 139.769 22.22C140.569 22.7 141.196 23.3467 141.649 24.16C142.103 24.9733 142.329 25.8867 142.329 26.9C142.329 27.9133 142.103 28.8333 141.649 29.66C141.196 30.4733 140.569 31.12 139.769 31.6C138.969 32.08 138.049 32.32 137.009 32.32ZM137.009 30.34C137.569 30.34 138.089 30.2067 138.569 29.94C139.049 29.66 139.436 29.2667 139.729 28.76C140.036 28.24 140.189 27.62 140.189 26.9C140.189 26.18 140.036 25.5667 139.729 25.06C139.436 24.54 139.049 24.1467 138.569 23.88C138.089 23.6 137.569 23.46 137.009 23.46C136.449 23.46 135.923 23.6 135.429 23.88C134.949 24.1467 134.556 24.54 134.249 25.06C133.956 25.5667 133.809 26.18 133.809 26.9C133.809 27.62 133.956 28.24 134.249 28.76C134.556 29.2667 134.956 29.66 135.449 29.94C135.943 30.2067 136.463 30.34 137.009 30.34ZM148.919 36.64C148.025 36.64 147.252 36.4933 146.599 36.2C145.959 35.92 145.439 35.5533 145.039 35.1C144.639 34.66 144.352 34.2067 144.179 33.74L146.179 32.9C146.392 33.4333 146.732 33.8667 147.199 34.2C147.679 34.5467 148.252 34.72 148.919 34.72C149.865 34.72 150.605 34.44 151.139 33.88C151.672 33.32 151.939 32.5267 151.939 31.5V30.52H151.819C151.499 30.9867 151.059 31.3667 150.499 31.66C149.939 31.9533 149.292 32.1 148.559 32.1C147.692 32.1 146.892 31.88 146.159 31.44C145.439 31 144.859 30.3867 144.419 29.6C143.992 28.8 143.779 27.8667 143.779 26.8C143.779 25.72 143.992 24.7867 144.419 24C144.859 23.2 145.439 22.58 146.159 22.14C146.892 21.7 147.692 21.48 148.559 21.48C149.292 21.48 149.939 21.6267 150.499 21.92C151.059 22.2 151.499 22.5867 151.819 23.08H151.939V21.8H153.999V31.46C153.999 32.5667 153.779 33.5067 153.339 34.28C152.912 35.0533 152.319 35.64 151.559 36.04C150.799 36.44 149.919 36.64 148.919 36.64ZM148.939 30.14C149.472 30.14 149.965 30.0133 150.419 29.76C150.885 29.4933 151.252 29.1133 151.519 28.62C151.799 28.1133 151.939 27.5067 151.939 26.8C151.939 26.0533 151.799 25.4333 151.519 24.94C151.252 24.4467 150.885 24.0733 150.419 23.82C149.965 23.5667 149.472 23.44 148.939 23.44C148.405 23.44 147.905 23.5667 147.439 23.82C146.985 24.0733 146.619 24.4533 146.339 24.96C146.059 25.4533 145.919 26.0667 145.919 26.8C145.919 27.52 146.059 28.1333 146.339 28.64C146.619 29.1333 146.985 29.5067 147.439 29.76C147.905 30.0133 148.405 30.14 148.939 30.14ZM156.546 32V17.68H158.706V32H156.546ZM165.815 32.32C164.815 32.32 163.921 32.0867 163.135 31.62C162.348 31.1533 161.728 30.5133 161.275 29.7C160.835 28.8867 160.615 27.96 160.615 26.92C160.615 25.9467 160.828 25.0467 161.255 24.22C161.681 23.3933 162.275 22.7333 163.035 22.24C163.808 21.7333 164.695 21.48 165.695 21.48C166.748 21.48 167.641 21.7067 168.375 22.16C169.121 22.6133 169.688 23.2333 170.075 24.02C170.461 24.8067 170.655 25.6933 170.655 26.68C170.655 26.8267 170.648 26.96 170.635 27.08C170.635 27.2 170.628 27.2933 170.615 27.36H162.735C162.788 27.92 162.928 28.4067 163.155 28.82C163.448 29.34 163.835 29.7333 164.315 30C164.795 30.2667 165.315 30.4 165.875 30.4C166.555 30.4 167.121 30.2467 167.575 29.94C168.041 29.62 168.408 29.2267 168.675 28.76L170.455 29.62C170.015 30.42 169.415 31.0733 168.655 31.58C167.895 32.0733 166.948 32.32 165.815 32.32ZM162.855 25.74H168.515C168.501 25.4867 168.435 25.22 168.315 24.94C168.195 24.6467 168.021 24.38 167.795 24.14C167.568 23.9 167.281 23.7067 166.935 23.56C166.588 23.4 166.181 23.32 165.715 23.32C165.128 23.32 164.608 23.4733 164.155 23.78C163.701 24.0733 163.348 24.4867 163.095 25.02C162.988 25.2467 162.908 25.4867 162.855 25.74ZM184.946 18.06L194.786 17.1L194.906 18.32L185.086 19.28L184.946 18.06ZM184.706 26.96L195.046 25.98L195.186 27.2L184.806 28.2L184.706 26.96ZM187.046 15.2H188.406C188.746 19.52 191.526 22.9 193.446 22.88C193.926 22.88 194.066 22.44 194.146 21.18C194.446 21.44 194.866 21.66 195.226 21.78C194.986 23.68 194.486 24.2 193.366 24.2C190.586 24.2 187.446 20.22 187.046 15.2ZM187.126 24.08H188.506C188.786 28.74 191.306 32.3 193.466 32.26C193.986 32.26 194.126 31.78 194.226 30.4C194.526 30.68 194.966 30.92 195.326 31.04C195.086 33.06 194.586 33.6 193.386 33.6C190.286 33.6 187.466 29.42 187.126 24.08ZM192.346 18.92L193.606 19.4C191.846 21.58 188.506 23.06 185.446 23.96C185.266 23.68 184.826 23.1 184.546 22.84C187.606 22.12 190.786 20.8 192.346 18.92ZM192.646 27.78L193.986 28.26C192.046 30.84 188.346 32.5 184.806 33.48C184.646 33.18 184.206 32.54 183.926 32.26C187.446 31.48 190.966 30.02 192.646 27.78ZM190.186 16.04L190.886 15.26C191.766 15.54 192.906 16.06 193.486 16.48L192.786 17.38C192.226 16.92 191.086 16.38 190.186 16.04ZM189.886 24.6L190.686 23.82C191.606 24.18 192.746 24.76 193.326 25.24L192.486 26.1C191.926 25.62 190.806 24.98 189.886 24.6ZM178.226 20.16H183.846V21.46H178.226V20.16ZM177.146 23.58H184.466V24.9H177.146V23.58ZM177.606 26.22L178.646 25.96C179.046 27.18 179.366 28.72 179.446 29.76L178.326 30.04C178.306 29 177.986 27.44 177.606 26.22ZM176.966 31.6C178.906 31.28 181.826 30.7 184.646 30.12L184.746 31.38C182.106 31.96 179.346 32.56 177.266 33L176.966 31.6ZM183.166 25.78L184.326 26.08C183.986 27.3 183.646 28.74 183.306 29.68L182.326 29.4C182.626 28.42 182.986 26.84 183.166 25.78ZM180.286 20.64H181.606V31.54L180.286 31.76V20.64ZM180.226 15.22H181.006V15.54H181.446V15.92C180.666 17.46 179.366 19.58 177.386 21.32C177.166 21.02 176.726 20.58 176.446 20.38C178.266 18.86 179.546 16.82 180.226 15.22ZM180.466 15.22H181.586C182.766 16.28 184.246 17.82 184.946 18.82L183.946 19.96C183.266 18.94 181.906 17.28 180.746 16.28H180.466V15.22ZM201.706 15.1L203.266 15.54C202.006 18.66 200.046 21.62 198.006 23.54C197.706 23.26 197.066 22.72 196.666 22.48C198.746 20.74 200.586 17.96 201.706 15.1ZM201.466 17.5H212.746V18.92H200.746L201.466 17.5ZM212.266 17.5H213.766C213.766 17.5 213.766 18 213.766 18.22C213.566 24.96 213.366 27.34 212.786 28.08C212.426 28.54 212.026 28.7 211.426 28.76C210.866 28.82 209.866 28.8 208.786 28.76C208.766 28.32 208.606 27.72 208.366 27.32C209.386 27.42 210.346 27.44 210.726 27.44C211.046 27.44 211.266 27.38 211.426 27.16C211.886 26.64 212.086 24.34 212.266 17.8V17.5ZM200.406 25.82H206.626V22.4H199.986V21.06H208.126V27.16H200.406V25.82ZM199.686 25.82H201.186V30.96C201.186 31.78 201.586 31.96 203.746 31.96C204.766 31.96 209.946 31.96 211.286 31.96C213.106 31.96 213.406 31.56 213.586 29.26C213.966 29.48 214.606 29.72 215.026 29.8C214.726 32.68 214.146 33.38 211.306 33.38C210.566 33.38 204.526 33.38 203.826 33.38C200.626 33.38 199.686 32.94 199.686 30.96V25.82ZM223.046 33.72H216.746V32.34H221.566V20.8H223.046V33.72Z" fill="white"/>
<path d="M247.9 27.66V29.32H256V27.66H247.9ZM247.9 24.96V26.6H256V24.96H247.9ZM246.42 23.88H257.54V30.4H246.42V23.88ZM243.14 17.76H260.88V19.08H243.14V17.76ZM251.18 15.2H252.68V23.26H251.18V15.2ZM250.32 18.14L251.58 18.64C249.78 21.22 246.62 23.56 243.68 24.72C243.46 24.36 243.02 23.82 242.7 23.52C245.58 22.54 248.72 20.38 250.32 18.14ZM253.5 18.16C255.12 20.34 258.32 22.4 261.28 23.34C260.94 23.62 260.5 24.18 260.28 24.58C257.3 23.46 254.1 21.16 252.28 18.64L253.5 18.16ZM243.46 31.62H260.6V32.96H243.46V31.62ZM267.18 24.1H278.84V33.66H277.34V25.3H268.62V33.66H267.18V24.1ZM263.16 21.46H280.82V22.7H263.16V21.46ZM264.62 18.78H279.66V19.98H264.62V18.78ZM268.16 26.66H277.98V27.72H268.16V26.66ZM268.16 29.14H277.98V30.18H268.16V29.14ZM268.02 31.66H277.98V32.86H268.02V31.66ZM278.5 15.36L279.46 16.46C275.74 17.2 269.6 17.5 264.66 17.52C264.62 17.18 264.48 16.66 264.34 16.34C269.22 16.3 275.32 16.02 278.5 15.36ZM270.3 16.74L271.86 17.06C270.52 21.9 268.08 26.48 263.6 29.14C263.4 28.82 262.96 28.26 262.66 27.98C266.9 25.54 269.24 21.16 270.3 16.74Z" fill="white"/>
</svg>
